<?xml version="1.0" encoding="UTF-8"?><svg xmlns="http://www.w3.org/2000/svg" xmlns:xlink="http://www.w3.org/1999/xlink" fill-opacity="1" color-rendering="auto" color-interpolation="auto" text-rendering="auto" stroke="black" stroke-linecap="square" width="3501" stroke-miterlimit="10" shape-rendering="auto" stroke-opacity="1" fill="black" stroke-dasharray="none" font-weight="normal" stroke-width="1" height="1327" font-family="'Dialog'" font-style="normal" stroke-linejoin="miter" font-size="12px" stroke-dashoffset="0" image-rendering="auto">
  <!--Generated by ySVG 2.5-->
  <defs id="genericDefs"/>
  <g>
    <defs id="defs1">
      <clipPath clipPathUnits="userSpaceOnUse" id="clipPath1">
        <path d="M0 0 L3501 0 L3501 1327 L0 1327 L0 0 Z"/>
      </clipPath>
      <clipPath clipPathUnits="userSpaceOnUse" id="clipPath2">
        <path d="M-15 -1297 L3486 -1297 L3486 30 L-15 30 L-15 -1297 Z"/>
      </clipPath>
      <clipPath clipPathUnits="userSpaceOnUse" id="clipPath3">
        <path d="M691 -1244 L691 -1153 L982 -1153 L982 -1244 Z"/>
      </clipPath>
      <clipPath clipPathUnits="userSpaceOnUse" id="clipPath4">
        <path d="M526 -618 L526 -281 L1139 -281 L1139 -618 Z"/>
      </clipPath>
      <clipPath clipPathUnits="userSpaceOnUse" id="clipPath5">
        <path d="M0 0 L0 256 L593 256 L593 0 Z"/>
      </clipPath>
      <clipPath clipPathUnits="userSpaceOnUse" id="clipPath6">
        <path d="M360 -998 L360 -822 L736 -822 L736 -998 Z"/>
      </clipPath>
      <clipPath clipPathUnits="userSpaceOnUse" id="clipPath7">
        <path d="M0 0 L0 128 L367 128 L367 0 Z"/>
      </clipPath>
      <clipPath clipPathUnits="userSpaceOnUse" id="clipPath8">
        <path d="M937 -1036 L937 -783 L1273 -783 L1273 -1036 Z"/>
      </clipPath>
      <clipPath clipPathUnits="userSpaceOnUse" id="clipPath9">
        <path d="M929 -165 L929 0 L1182 0 L1182 -165 Z"/>
      </clipPath>
      <clipPath clipPathUnits="userSpaceOnUse" id="clipPath10">
        <path d="M1212 -129 L1212 -36 L2087 -36 L2087 -129 Z"/>
      </clipPath>
      <clipPath clipPathUnits="userSpaceOnUse" id="clipPath11">
        <path d="M350 -483 L350 -416 L496 -416 L496 -483 Z"/>
      </clipPath>
      <clipPath clipPathUnits="userSpaceOnUse" id="clipPath12">
        <path d="M231 -116 L231 -49 L543 -49 L543 -116 Z"/>
      </clipPath>
      <clipPath clipPathUnits="userSpaceOnUse" id="clipPath13">
        <path d="M573 -116 L573 -49 L899 -49 L899 -116 Z"/>
      </clipPath>
      <clipPath clipPathUnits="userSpaceOnUse" id="clipPath14">
        <path d="M1303 -969 L1303 -849 L2067 -849 L2067 -969 Z"/>
      </clipPath>
      <clipPath clipPathUnits="userSpaceOnUse" id="clipPath15">
        <path d="M2098 -955 L2098 -864 L2283 -864 L2283 -955 Z"/>
      </clipPath>
      <clipPath clipPathUnits="userSpaceOnUse" id="clipPath16">
        <path d="M2345 -504 L2345 -395 L2653 -395 L2653 -504 Z"/>
      </clipPath>
      <clipPath clipPathUnits="userSpaceOnUse" id="clipPath17">
        <path d="M0 0 L0 64 L292 64 L292 0 Z"/>
      </clipPath>
      <clipPath clipPathUnits="userSpaceOnUse" id="clipPath18">
        <path d="M2684 -514 L2684 -385 L3453 -385 L3453 -514 Z"/>
      </clipPath>
      <clipPath clipPathUnits="userSpaceOnUse" id="clipPath19">
        <path d="M0 0 L0 80 L761 80 L761 0 Z"/>
      </clipPath>
      <clipPath clipPathUnits="userSpaceOnUse" id="clipPath20">
        <path d="M69 -923 L69 -895 L169 -895 L169 -923 Z"/>
      </clipPath>
      <clipPath clipPathUnits="userSpaceOnUse" id="clipPath21">
        <path d="M16 -1212 L16 -1184 L169 -1184 L169 -1212 Z"/>
      </clipPath>
    </defs>
    <g fill="rgb(245,245,245)" text-rendering="geometricPrecision" shape-rendering="geometricPrecision" transform="matrix(1,0,0,1,15,1297)" stroke="rgb(245,245,245)">
      <rect x="215.0008" y="-1281.4478" clip-path="url(#clipPath2)" width="2084.8996" rx="4" ry="4" height="1296.4478" stroke="none"/>
    </g>
    <g fill="rgb(235,235,235)" text-rendering="geometricPrecision" shape-rendering="geometricPrecision" transform="matrix(1,0,0,1,15,1297)" stroke="rgb(235,235,235)">
      <rect x="215.0008" width="2084.8996" height="22.3765" y="-1281.4478" clip-path="url(#clipPath2)" stroke="none"/>
    </g>
    <g font-size="15px" stroke-linecap="butt" transform="matrix(1,0,0,1,15,1297)" text-rendering="geometricPrecision" font-family="sans-serif" shape-rendering="geometricPrecision" stroke-miterlimit="1.45">
      <text x="2202.041" xml:space="preserve" y="-1264.3673" clip-path="url(#clipPath2)" stroke="none">com.gbjl.strips</text>
      <rect x="215.0008" y="-1281.4478" clip-path="url(#clipPath2)" fill="none" width="2084.8996" stroke-dasharray="6,2" rx="4" ry="4" height="1296.4478"/>
    </g>
    <g fill="white" text-rendering="geometricPrecision" shape-rendering="geometricPrecision" transform="matrix(1,0,0,1,15,1297)" stroke="white">
      <rect x="691.6199" width="291.234" height="91.3333" y="-1244.0714" clip-path="url(#clipPath2)" stroke="none"/>
    </g>
    <g text-rendering="geometricPrecision" stroke-miterlimit="1.45" shape-rendering="geometricPrecision" transform="matrix(1,0,0,1,15,1297)" stroke-linecap="butt">
      <rect fill="none" x="691.6199" width="291.234" height="91.3333" y="-1244.0714" clip-path="url(#clipPath2)"/>
      <text x="800.2086" xml:space="preserve" y="-1227.007" clip-path="url(#clipPath3)" font-family="sans-serif" stroke="none">&lt;&lt;interface&gt;&gt;</text>
      <text x="811.951" font-size="13px" y="-1202.3004" clip-path="url(#clipPath3)" font-family="sans-serif" stroke="none" font-weight="bold" xml:space="preserve">Element</text>
      <line stroke-linecap="square" clip-path="url(#clipPath3)" fill="none" x1="692" x2="981" y1="-1194" y2="-1194" stroke-miterlimit="10"/>
      <line stroke-linecap="square" clip-path="url(#clipPath3)" fill="none" x1="692" x2="981" y1="-1184" y2="-1184" stroke-miterlimit="10"/>
      <text x="696.6199" xml:space="preserve" y="-1167.3795" clip-path="url(#clipPath3)" font-family="sans-serif" stroke="none">replaceParams(replacement : Map&lt;String, Param&gt;)</text>
    </g>
    <g fill="white" text-rendering="geometricPrecision" shape-rendering="geometricPrecision" transform="matrix(1,0,0,1,15,1297)" stroke="white">
      <rect x="526.6418" width="613.8378" height="337.5506" y="-618.7756" clip-path="url(#clipPath2)" stroke="none"/>
    </g>
    <g text-rendering="geometricPrecision" stroke-miterlimit="1.45" shape-rendering="geometricPrecision" transform="matrix(1,0,0,1,15,1297)" stroke-linecap="butt">
      <rect fill="none" x="526.6418" width="613.8378" height="337.5506" y="-618.7756" clip-path="url(#clipPath2)"/>
      <text x="804.2949" font-size="13px" y="-600.7058" clip-path="url(#clipPath4)" font-family="sans-serif" stroke="none" font-weight="bold" xml:space="preserve">Predicate</text>
      <line stroke-linecap="square" clip-path="url(#clipPath4)" fill="none" x1="527" x2="1139" y1="-592" y2="-592" stroke-miterlimit="10"/>
      <text x="531.6418" xml:space="preserve" y="-575.7849" clip-path="url(#clipPath4)" font-family="sans-serif" stroke="none">name : String</text>
      <text x="531.6418" xml:space="preserve" y="-561.0837" clip-path="url(#clipPath4)" font-family="sans-serif" stroke="none">negated : Boolean</text>
      <line stroke-linecap="square" clip-path="url(#clipPath4)" fill="none" x1="527" x2="1139" y1="-553" y2="-553" stroke-miterlimit="10"/>
    </g>
    <g text-rendering="geometricPrecision" stroke-miterlimit="1.45" shape-rendering="geometricPrecision" font-family="sans-serif" transform="matrix(1,0,0,1,15,1297) translate(531,-548)" stroke-linecap="butt">
      <text x="0" xml:space="preserve" y="13" clip-path="url(#clipPath5)" stroke="none">Predicate(name : String, negated : Boolean)</text>
      <text x="239" xml:space="preserve" y="13" clip-path="url(#clipPath5)" stroke="none"> </text>
      <text x="0" xml:space="preserve" y="29" clip-path="url(#clipPath5)" stroke="none">Predicate(name : String, negated : Boolean, params : String[], instantiated : Boolean)</text>
      <text x="460" xml:space="preserve" y="29" clip-path="url(#clipPath5)" stroke="none"> </text>
      <text x="0" xml:space="preserve" y="45" clip-path="url(#clipPath5)" stroke="none">Predicate(original : Predicate)</text>
      <text x="162" xml:space="preserve" y="45" clip-path="url(#clipPath5)" stroke="none"> </text>
      <text x="0" xml:space="preserve" y="61" clip-path="url(#clipPath5)" stroke="none">addParam(p : Param)</text>
      <text x="119" xml:space="preserve" y="61" clip-path="url(#clipPath5)" stroke="none"> </text>
      <text x="0" xml:space="preserve" y="77" clip-path="url(#clipPath5)" stroke="none">getName() : String</text>
      <text x="100" xml:space="preserve" y="77" clip-path="url(#clipPath5)" stroke="none"> </text>
      <text x="0" xml:space="preserve" y="93" clip-path="url(#clipPath5)" stroke="none">getParams() : ArrayList&lt;Param&gt;</text>
      <text x="176" xml:space="preserve" y="93" clip-path="url(#clipPath5)" stroke="none"> </text>
      <text x="0" xml:space="preserve" y="109" clip-path="url(#clipPath5)" stroke="none">isNegated() : Boolean</text>
      <text x="120" xml:space="preserve" y="109" clip-path="url(#clipPath5)" stroke="none"> </text>
      <text x="0" xml:space="preserve" y="125" clip-path="url(#clipPath5)" stroke="none">getInverse() : Predicate</text>
      <text x="126" xml:space="preserve" y="125" clip-path="url(#clipPath5)" stroke="none"> </text>
      <text x="0" xml:space="preserve" y="141" clip-path="url(#clipPath5)" stroke="none">isFullyInstantiated() : Boolean</text>
      <text x="162" xml:space="preserve" y="141" clip-path="url(#clipPath5)" stroke="none"> </text>
      <text x="0" xml:space="preserve" y="157" clip-path="url(#clipPath5)" stroke="none">equals(p : Object) : Boolean</text>
      <text x="152" xml:space="preserve" y="157" clip-path="url(#clipPath5)" stroke="none"> </text>
      <text x="0" xml:space="preserve" y="173" clip-path="url(#clipPath5)" stroke="none">hashCode() : Int</text>
      <text x="88" xml:space="preserve" y="173" clip-path="url(#clipPath5)" stroke="none"> </text>
      <text x="0" xml:space="preserve" y="189" clip-path="url(#clipPath5)" stroke="none">replaceParams(replacement : Map&lt;String, Param&gt;)</text>
      <text x="283" xml:space="preserve" y="189" clip-path="url(#clipPath5)" stroke="none"> </text>
      <text x="0" xml:space="preserve" y="205" clip-path="url(#clipPath5)" stroke="none">toString() : String</text>
      <text x="91" xml:space="preserve" y="205" clip-path="url(#clipPath5)" stroke="none"> </text>
      <text x="0" xml:space="preserve" y="221" clip-path="url(#clipPath5)" stroke="none">replaceParamsFromAList(replacement : Map&lt;String, Param&gt;, l : ArrayList&lt;Param&gt;)</text>
      <line y2="222" fill="none" x1="0" clip-path="url(#clipPath5)" x2="455" y1="222"/>
      <text x="455" xml:space="preserve" y="221" clip-path="url(#clipPath5)" stroke="none"> </text>
      <text x="0" xml:space="preserve" y="237" clip-path="url(#clipPath5)" stroke="none">fromString(serialization : String) : Predicate</text>
      <line y2="238" fill="none" x1="0" clip-path="url(#clipPath5)" x2="233" y1="238"/>
      <text x="233" xml:space="preserve" y="237" clip-path="url(#clipPath5)" stroke="none"> </text>
      <text x="0" xml:space="preserve" y="253" clip-path="url(#clipPath5)" stroke="none">nameAndParamsToString(n : String, p : ArrayList&lt;Param&gt;, addParenthesisWithNoParams : Boolean) : String</text>
      <line y2="254" fill="none" x1="0" clip-path="url(#clipPath5)" x2="593" y1="254"/>
    </g>
    <g fill="white" text-rendering="geometricPrecision" shape-rendering="geometricPrecision" transform="matrix(1,0,0,1,15,1297)" stroke="white">
      <rect x="360.4959" width="376.2408" height="176.8236" y="-998.1686" clip-path="url(#clipPath2)" stroke="none"/>
    </g>
    <g text-rendering="geometricPrecision" stroke-miterlimit="1.45" shape-rendering="geometricPrecision" transform="matrix(1,0,0,1,15,1297)" stroke-linecap="butt">
      <rect fill="none" x="360.4959" width="376.2408" height="176.8236" y="-998.1686" clip-path="url(#clipPath2)"/>
      <text x="509.2354" font-size="13px" y="-980.0988" clip-path="url(#clipPath6)" font-family="sans-serif" stroke="none" font-weight="bold" xml:space="preserve">PredicateSet</text>
      <line stroke-linecap="square" clip-path="url(#clipPath6)" fill="none" x1="361" x2="735" y1="-972" y2="-972" stroke-miterlimit="10"/>
      <line stroke-linecap="square" clip-path="url(#clipPath6)" fill="none" x1="361" x2="735" y1="-962" y2="-962" stroke-miterlimit="10"/>
    </g>
    <g text-rendering="geometricPrecision" stroke-miterlimit="1.45" shape-rendering="geometricPrecision" font-family="sans-serif" transform="matrix(1,0,0,1,15,1297) translate(365,-957)" stroke-linecap="butt">
      <text x="0" xml:space="preserve" y="13" clip-path="url(#clipPath7)" stroke="none">fromString(serialization : String) : PredicateSet</text>
      <line y2="14" fill="none" x1="0" clip-path="url(#clipPath7)" x2="251" y1="14"/>
      <text x="251" xml:space="preserve" y="13" clip-path="url(#clipPath7)" stroke="none"> </text>
      <text x="0" xml:space="preserve" y="29" clip-path="url(#clipPath7)" stroke="none">PredicateSet()</text>
      <text x="78" xml:space="preserve" y="29" clip-path="url(#clipPath7)" stroke="none"> </text>
      <text x="0" xml:space="preserve" y="45" clip-path="url(#clipPath7)" stroke="none">PredicateSet(s : Set&lt;Predicate&gt;)</text>
      <text x="178" xml:space="preserve" y="45" clip-path="url(#clipPath7)" stroke="none"> </text>
      <text x="0" xml:space="preserve" y="61" clip-path="url(#clipPath7)" stroke="none">toArrayList() : ArrayList&lt;Predicate&gt;</text>
      <text x="187" xml:space="preserve" y="61" clip-path="url(#clipPath7)" stroke="none"> </text>
      <text x="0" xml:space="preserve" y="77" clip-path="url(#clipPath7)" stroke="none">getPredicatesByName(n : String) : PredicateSet</text>
      <text x="258" xml:space="preserve" y="77" clip-path="url(#clipPath7)" stroke="none"> </text>
      <text x="0" xml:space="preserve" y="93" clip-path="url(#clipPath7)" stroke="none">sortPredicatesByName(nameOrder : String[]) : ArrayList&lt;Predicate&gt;</text>
      <text x="367" xml:space="preserve" y="93" clip-path="url(#clipPath7)" stroke="none"> </text>
      <text x="0" xml:space="preserve" y="109" clip-path="url(#clipPath7)" stroke="none">replaceParams(replacement : Map&lt;String, Param&gt;)</text>
      <text x="283" xml:space="preserve" y="109" clip-path="url(#clipPath7)" stroke="none"> </text>
      <text x="0" xml:space="preserve" y="125" clip-path="url(#clipPath7)" stroke="none">toString() : String</text>
      <text x="91" xml:space="preserve" y="125" clip-path="url(#clipPath7)" stroke="none"> </text>
    </g>
    <g fill="white" text-rendering="geometricPrecision" shape-rendering="geometricPrecision" transform="matrix(1,0,0,1,15,1297)" stroke="white">
      <rect x="937.737" width="336.034" height="253.9624" y="-1036.738" clip-path="url(#clipPath2)" stroke="none"/>
    </g>
    <g text-rendering="geometricPrecision" stroke-miterlimit="1.45" shape-rendering="geometricPrecision" transform="matrix(1,0,0,1,15,1297)" stroke-linecap="butt">
      <rect fill="none" x="937.737" width="336.034" height="253.9624" y="-1036.738" clip-path="url(#clipPath2)"/>
      <text x="1078.3036" font-size="13px" y="-1018.6682" clip-path="url(#clipPath8)" font-family="sans-serif" stroke="none" font-weight="bold" xml:space="preserve">Operator</text>
      <line stroke-linecap="square" clip-path="url(#clipPath8)" fill="none" x1="938" x2="1272" y1="-1010" y2="-1010" stroke-miterlimit="10"/>
      <text x="942.7369" xml:space="preserve" y="-993.7473" clip-path="url(#clipPath8)" font-family="sans-serif" stroke="none">name : String</text>
      <line stroke-linecap="square" clip-path="url(#clipPath8)" fill="none" x1="938" x2="1272" y1="-986" y2="-986" stroke-miterlimit="10"/>
      <text x="942.7369" xml:space="preserve" y="-969.0461" clip-path="url(#clipPath8)" font-family="sans-serif" stroke="none">Operator(name : String)</text>
      <text x="942.7369" xml:space="preserve" y="-954.345" clip-path="url(#clipPath8)" font-family="sans-serif" stroke="none">addParam(p : Param)</text>
      <text x="942.7369" xml:space="preserve" y="-939.6438" clip-path="url(#clipPath8)" font-family="sans-serif" stroke="none">addPrecondition(p : Predicate)</text>
      <text x="942.7369" xml:space="preserve" y="-924.9426" clip-path="url(#clipPath8)" font-family="sans-serif" stroke="none">addPostcondition(p : Predicate)</text>
      <text x="942.7369" xml:space="preserve" y="-910.2415" clip-path="url(#clipPath8)" font-family="sans-serif" stroke="none">getName() : String</text>
      <text x="942.7369" xml:space="preserve" y="-895.5403" clip-path="url(#clipPath8)" font-family="sans-serif" stroke="none">getParams() : ArrayList&lt;Param&gt;</text>
      <text x="942.7369" xml:space="preserve" y="-880.8391" clip-path="url(#clipPath8)" font-family="sans-serif" stroke="none">getPreconditions(state : PredicateSet) : PredicateSet</text>
      <text x="942.7369" xml:space="preserve" y="-866.1379" clip-path="url(#clipPath8)" font-family="sans-serif" stroke="none">getPostconditions(state : PredicateSet) : PredicateSet</text>
      <text x="942.7369" xml:space="preserve" y="-851.4368" clip-path="url(#clipPath8)" font-family="sans-serif" stroke="none">copy() : Operator</text>
      <text x="942.7369" xml:space="preserve" y="-836.7356" clip-path="url(#clipPath8)" font-family="sans-serif" stroke="none">replaceParams(replacement : Map&lt;String, Param&gt;)</text>
      <text x="942.7369" xml:space="preserve" y="-822.0344" clip-path="url(#clipPath8)" font-family="sans-serif" stroke="none">equals(o : Object) : Boolean</text>
      <text x="942.7369" xml:space="preserve" y="-807.3333" clip-path="url(#clipPath8)" font-family="sans-serif" stroke="none">hashCode() : Int</text>
      <text x="942.7369" xml:space="preserve" y="-792.6321" clip-path="url(#clipPath8)" font-family="sans-serif" stroke="none">toString() : String</text>
    </g>
    <g fill="white" text-rendering="geometricPrecision" shape-rendering="geometricPrecision" transform="matrix(1,0,0,1,15,1297)" stroke="white">
      <rect x="929.6845" width="253" height="165.225" y="-165.225" clip-path="url(#clipPath2)" stroke="none"/>
    </g>
    <g text-rendering="geometricPrecision" stroke-miterlimit="1.45" shape-rendering="geometricPrecision" transform="matrix(1,0,0,1,15,1297)" stroke-linecap="butt">
      <rect fill="none" x="929.6845" width="253" height="165.225" y="-165.225" clip-path="url(#clipPath2)"/>
      <text x="1036.3101" font-size="13px" y="-147.1552" clip-path="url(#clipPath9)" font-family="sans-serif" stroke="none" font-weight="bold" xml:space="preserve">Param</text>
      <line stroke-linecap="square" clip-path="url(#clipPath9)" fill="none" x1="930" x2="1181" y1="-139" y2="-139" stroke-miterlimit="10"/>
      <text x="934.6845" xml:space="preserve" y="-122.2343" clip-path="url(#clipPath9)" font-family="sans-serif" stroke="none">name : String</text>
      <text x="934.6845" xml:space="preserve" y="-107.5331" clip-path="url(#clipPath9)" font-family="sans-serif" stroke="none">instantiated : Boolean</text>
      <line stroke-linecap="square" clip-path="url(#clipPath9)" fill="none" x1="930" x2="1181" y1="-99" y2="-99" stroke-miterlimit="10"/>
      <text x="934.6845" xml:space="preserve" y="-82.8319" clip-path="url(#clipPath9)" font-family="sans-serif" stroke="none">Param(name : String, instantiated : Boolean)</text>
      <text x="934.6845" xml:space="preserve" y="-68.1308" clip-path="url(#clipPath9)" font-family="sans-serif" stroke="none">getName() : String</text>
      <text x="934.6845" xml:space="preserve" y="-53.4296" clip-path="url(#clipPath9)" font-family="sans-serif" stroke="none">isInstantiated() : Boolean</text>
      <text x="934.6845" xml:space="preserve" y="-38.7284" clip-path="url(#clipPath9)" font-family="sans-serif" stroke="none">equals(p : Object) : Boolean</text>
      <text x="934.6845" xml:space="preserve" y="-24.0272" clip-path="url(#clipPath9)" font-family="sans-serif" stroke="none">hashCode() : Int</text>
      <text x="934.6845" xml:space="preserve" y="-9.3261" clip-path="url(#clipPath9)" font-family="sans-serif" stroke="none">toString() : String</text>
    </g>
    <g fill="white" text-rendering="geometricPrecision" shape-rendering="geometricPrecision" transform="matrix(1,0,0,1,15,1297)" stroke="white">
      <rect x="1212.6847" width="875.5964" height="93.6664" y="-129.4457" clip-path="url(#clipPath2)" stroke="none"/>
    </g>
    <g text-rendering="geometricPrecision" stroke-miterlimit="1.45" shape-rendering="geometricPrecision" transform="matrix(1,0,0,1,15,1297)" stroke-linecap="butt">
      <rect fill="none" x="1212.6847" width="875.5964" height="93.6664" y="-129.4457" clip-path="url(#clipPath2)"/>
      <text x="1630.6116" font-size="13px" y="-111.3759" clip-path="url(#clipPath10)" font-family="sans-serif" stroke="none" font-weight="bold" xml:space="preserve">Solver</text>
      <line stroke-linecap="square" clip-path="url(#clipPath10)" fill="none" x1="1213" x2="2087" y1="-103" y2="-103" stroke-miterlimit="10"/>
      <line stroke-linecap="square" clip-path="url(#clipPath10)" fill="none" x1="1213" x2="2087" y1="-93" y2="-93" stroke-miterlimit="10"/>
      <text x="1217.6847" xml:space="preserve" y="-76.455" clip-path="url(#clipPath10)" font-family="sans-serif" stroke="none">Solver()</text>
      <text x="1217.6847" xml:space="preserve" y="-61.7538" clip-path="url(#clipPath10)" font-family="sans-serif" stroke="none">solve(ops : Set&lt;Operator&gt;, start : Set&lt;Predicate&gt;, goal : Set&lt;Predicate&gt;) : ArrayList&lt;Operator&gt; throws STRIPSException</text>
      <text x="1217.6847" xml:space="preserve" y="-47.0526" clip-path="url(#clipPath10)" font-family="sans-serif" stroke="none">solve(ops : Set&lt;Operator&gt;, start : Set&lt;Predicate&gt;, goal : Set&lt;Predicate&gt;, h : HeuristicProvider, l : STRIPSLogger) : ArrayList&lt;Operator&gt; throws STRIPSException</text>
    </g>
    <g fill="white" text-rendering="geometricPrecision" shape-rendering="geometricPrecision" transform="matrix(1,0,0,1,15,1297)" stroke="white">
      <rect x="350.6417" width="146" height="67.1097" y="-483.5552" clip-path="url(#clipPath2)" stroke="none"/>
    </g>
    <g text-rendering="geometricPrecision" stroke-miterlimit="1.45" shape-rendering="geometricPrecision" transform="matrix(1,0,0,1,15,1297)" stroke-linecap="butt">
      <rect fill="none" x="350.6417" width="146" height="67.1097" y="-483.5552" clip-path="url(#clipPath2)"/>
      <text x="369.1026" font-size="13px" y="-465.4854" clip-path="url(#clipPath11)" font-family="sans-serif" stroke="none" font-weight="bold" xml:space="preserve">STRIPSException</text>
      <line stroke-linecap="square" clip-path="url(#clipPath11)" fill="none" x1="351" x2="495" y1="-457" y2="-457" stroke-miterlimit="10"/>
      <line stroke-linecap="square" clip-path="url(#clipPath11)" fill="none" x1="351" x2="495" y1="-447" y2="-447" stroke-miterlimit="10"/>
      <text x="355.6417" xml:space="preserve" y="-430.5645" clip-path="url(#clipPath11)" font-family="sans-serif" stroke="none">STRIPSException(message : String)</text>
    </g>
    <g fill="white" text-rendering="geometricPrecision" shape-rendering="geometricPrecision" transform="matrix(1,0,0,1,15,1297)" stroke="white">
      <rect x="231.001" width="312.2814" height="67.1097" y="-116.1674" clip-path="url(#clipPath2)" stroke="none"/>
    </g>
    <g text-rendering="geometricPrecision" stroke-miterlimit="1.45" shape-rendering="geometricPrecision" transform="matrix(1,0,0,1,15,1297)" stroke-linecap="butt">
      <rect fill="none" x="231.001" width="312.2814" height="67.1097" y="-116.1674" clip-path="url(#clipPath2)"/>
      <text x="274.4708" font-size="13px" y="-98.0975" clip-path="url(#clipPath12)" font-family="sans-serif" stroke="none" font-weight="bold" xml:space="preserve">OperatorNotFoundSTRIPSException</text>
      <line stroke-linecap="square" clip-path="url(#clipPath12)" fill="none" x1="232" x2="542" y1="-90" y2="-90" stroke-miterlimit="10"/>
      <line stroke-linecap="square" clip-path="url(#clipPath12)" fill="none" x1="232" x2="542" y1="-80" y2="-80" stroke-miterlimit="10"/>
      <text x="236.001" xml:space="preserve" y="-63.1766" clip-path="url(#clipPath12)" font-family="sans-serif" stroke="none">OperatorNotFoundSTRIPSException(message : String)</text>
    </g>
    <g fill="white" text-rendering="geometricPrecision" shape-rendering="geometricPrecision" transform="matrix(1,0,0,1,15,1297)" stroke="white">
      <rect x="573.2825" width="326.4017" height="67.1097" y="-116.1674" clip-path="url(#clipPath2)" stroke="none"/>
    </g>
    <g text-rendering="geometricPrecision" stroke-miterlimit="1.45" shape-rendering="geometricPrecision" transform="matrix(1,0,0,1,15,1297)" stroke-linecap="butt">
      <rect fill="none" x="573.2825" width="326.4017" height="67.1097" y="-116.1674" clip-path="url(#clipPath2)"/>
      <text x="612.6247" font-size="13px" y="-98.0975" clip-path="url(#clipPath13)" font-family="sans-serif" stroke="none" font-weight="bold" xml:space="preserve">InstantiationNotFoundSTRIPSException</text>
      <line stroke-linecap="square" clip-path="url(#clipPath13)" fill="none" x1="574" x2="898" y1="-90" y2="-90" stroke-miterlimit="10"/>
      <line stroke-linecap="square" clip-path="url(#clipPath13)" fill="none" x1="574" x2="898" y1="-80" y2="-80" stroke-miterlimit="10"/>
      <text x="578.2825" xml:space="preserve" y="-63.1766" clip-path="url(#clipPath13)" font-family="sans-serif" stroke="none">InstantiationNotFoundSTRIPSException(message : String)</text>
    </g>
    <g fill="white" text-rendering="geometricPrecision" shape-rendering="geometricPrecision" transform="matrix(1,0,0,1,15,1297)" stroke="white">
      <rect x="1303.7711" width="764.2515" height="120.151" y="-969.8323" clip-path="url(#clipPath2)" stroke="none"/>
    </g>
    <g text-rendering="geometricPrecision" stroke-miterlimit="1.45" shape-rendering="geometricPrecision" transform="matrix(1,0,0,1,15,1297)" stroke-linecap="butt">
      <rect fill="none" x="1303.7711" width="764.2515" height="120.151" y="-969.8323" clip-path="url(#clipPath2)"/>
      <text x="1648.8685" xml:space="preserve" y="-952.7679" clip-path="url(#clipPath14)" font-family="sans-serif" stroke="none">&lt;&lt;interface&gt;&gt;</text>
      <text x="1631.7101" font-size="13px" y="-928.0613" clip-path="url(#clipPath14)" font-family="sans-serif" stroke="none" font-weight="bold" xml:space="preserve">HeuristicProvider</text>
      <line stroke-linecap="square" clip-path="url(#clipPath14)" fill="none" x1="1304" x2="2067" y1="-920" y2="-920" stroke-miterlimit="10"/>
      <line stroke-linecap="square" clip-path="url(#clipPath14)" fill="none" x1="1304" x2="2067" y1="-910" y2="-910" stroke-miterlimit="10"/>
      <text x="1308.7711" xml:space="preserve" y="-893.1404" clip-path="url(#clipPath14)" font-family="sans-serif" stroke="none">heuristicSortPredicateSet(state : PredicateSet, stack : ArrayList&lt;Element&gt;,  p : PredicateSet) : ArrayList&lt;Predicate&gt;</text>
      <text x="1308.7711" xml:space="preserve" y="-878.4393" clip-path="url(#clipPath14)" font-family="sans-serif" stroke="none">heuristicBestOperator(state : PredicateSet, stack : ArrayList&lt;Element&gt;, ops : Set&lt;Operator&gt;) : Operator</text>
      <text x="1308.7711" xml:space="preserve" y="-863.7381" clip-path="url(#clipPath14)" font-family="sans-serif" stroke="none">heuristicBestInstantiation(state : PredicateSet, stack : ArrayList&lt;Element&gt;, p : Predicate, i : Set&lt;Map&lt;String, Param&gt;&gt;) : Map&lt;String, Param&gt;</text>
    </g>
    <g fill="white" text-rendering="geometricPrecision" shape-rendering="geometricPrecision" transform="matrix(1,0,0,1,15,1297)" stroke="white">
      <rect x="2098.0227" width="185.8777" height="91.3333" y="-955.4235" clip-path="url(#clipPath2)" stroke="none"/>
    </g>
    <g text-rendering="geometricPrecision" stroke-miterlimit="1.45" shape-rendering="geometricPrecision" transform="matrix(1,0,0,1,15,1297)" stroke-linecap="butt">
      <rect fill="none" x="2098.0227" width="185.8777" height="91.3333" y="-955.4235" clip-path="url(#clipPath2)"/>
      <text x="2153.9331" xml:space="preserve" y="-938.3591" clip-path="url(#clipPath15)" font-family="sans-serif" stroke="none">&lt;&lt;interface&gt;&gt;</text>
      <text x="2145.4583" font-size="13px" y="-913.6525" clip-path="url(#clipPath15)" font-family="sans-serif" stroke="none" font-weight="bold" xml:space="preserve">STRIPSLogger</text>
      <line stroke-linecap="square" clip-path="url(#clipPath15)" fill="none" x1="2099" x2="2282" y1="-905" y2="-905" stroke-miterlimit="10"/>
      <line stroke-linecap="square" clip-path="url(#clipPath15)" fill="none" x1="2099" x2="2282" y1="-895" y2="-895" stroke-miterlimit="10"/>
      <text x="2103.0227" xml:space="preserve" y="-878.7316" clip-path="url(#clipPath15)" font-family="sans-serif" stroke="none">logSTRIPS(message : String)</text>
      <path fill="none" stroke-dasharray="6,2" d="M756.831 -618.8059 L756.831 -634.2756 L837.2369 -634.2756 L837.2369 -1137.738" clip-path="url(#clipPath2)"/>
      <path fill="white" stroke-dasharray="6,2" d="M837.2369 -1152.738 L831.2369 -1136.738 L843.2369 -1136.738 Z" clip-path="url(#clipPath2)" stroke="none"/>
      <path fill="none" d="M837.2369 -1152.738 L831.2369 -1136.738 L843.2369 -1136.738 Z" clip-path="url(#clipPath2)"/>
      <path fill="none" d="M548.6163 -814.2994 L548.6163 -634.2756 L603.3715 -634.2756 L603.3715 -618.8059" clip-path="url(#clipPath2)"/>
      <path fill="white" d="M548.6163 -821.2994 L553.6163 -814.2994 L548.6163 -807.2994 L543.6163 -814.2994 Z" clip-path="url(#clipPath2)" stroke="none"/>
      <path fill="none" d="M548.6163 -821.2994 L553.6163 -814.2994 L548.6163 -807.2994 L543.6163 -814.2994 Z" clip-path="url(#clipPath2)"/>
      <path fill="none" stroke-dasharray="6,2" d="M642.6765 -998.1989 L642.6765 -1013.6686 L740.1589 -1013.6686 L740.1589 -1137.738" clip-path="url(#clipPath2)"/>
      <path fill="white" stroke-dasharray="6,2" d="M740.1589 -1152.738 L734.1589 -1136.738 L746.1589 -1136.738 Z" clip-path="url(#clipPath2)" stroke="none"/>
      <path fill="none" d="M740.1589 -1152.738 L734.1589 -1136.738 L746.1589 -1136.738 Z" clip-path="url(#clipPath2)"/>
      <path fill="none" stroke-dasharray="6,2" d="M1105.754 -1036.7683 L1105.754 -1052.238 L934.3149 -1052.238 L934.3149 -1137.738" clip-path="url(#clipPath2)"/>
      <path fill="white" stroke-dasharray="6,2" d="M934.3149 -1152.738 L928.3149 -1136.738 L940.3149 -1136.738 Z" clip-path="url(#clipPath2)" stroke="none"/>
      <path fill="none" d="M934.3149 -1152.738 L928.3149 -1136.738 L940.3149 -1136.738 Z" clip-path="url(#clipPath2)"/>
      <path fill="none" d="M979.7412 -775.7394 L979.7412 -634.2756 L910.2905 -634.2756 L910.2905 -618.8059" clip-path="url(#clipPath2)"/>
      <path d="M979.7412 -782.7394 L984.7412 -775.7394 L979.7412 -768.7394 L974.7412 -775.7394 Z" clip-path="url(#clipPath2)" stroke="none"/>
      <text x="846.4877" xml:space="preserve" y="-627.141" clip-path="url(#clipPath2)" font-family="sans-serif" stroke="none">preconditions</text>
      <path fill="none" d="M1063.7498 -775.7356 L1063.7499 -618.8157" clip-path="url(#clipPath2)"/>
      <path d="M1063.7498 -782.7356 L1068.7498 -775.7356 L1063.7498 -768.7356 L1058.7498 -775.7356 Z" clip-path="url(#clipPath2)" stroke="none"/>
      <text x="995.3914" xml:space="preserve" y="-696.0618" clip-path="url(#clipPath2)" font-family="sans-serif" stroke="none">postconditions</text>
      <path fill="none" d="M833.5607 -274.1759 L833.5607 -180.725 L992.9345 -180.725 L992.9345 -165.2553" clip-path="url(#clipPath2)"/>
      <path d="M833.5607 -281.1759 L838.5607 -274.1759 L833.5607 -267.1759 L828.5607 -274.1759 Z" clip-path="url(#clipPath2)" stroke="none"/>
      <text x="783.5539" xml:space="preserve" y="-219.0858" clip-path="url(#clipPath2)" font-family="sans-serif" stroke="none">params</text>
      <path fill="none" d="M1147.7582 -775.7394 L1147.7582 -634.2756 L1240.9797 -634.2756 L1240.9797 -180.725 L1119.4346 -180.725 L1119.4346 -165.2553" clip-path="url(#clipPath2)"/>
      <path d="M1147.7582 -782.7394 L1152.7582 -775.7394 L1147.7582 -768.7394 L1142.7582 -775.7394 Z" clip-path="url(#clipPath2)" stroke="none"/>
      <text x="1097.7513" xml:space="preserve" y="-696.6365" clip-path="url(#clipPath2)" font-family="sans-serif" stroke="none">params</text>
      <path fill="none" d="M387.1417 -116.204 L387.1417 -401.4088" clip-path="url(#clipPath2)"/>
      <path fill="white" d="M387.1417 -416.4088 L381.1417 -400.4088 L393.1417 -400.4088 Z" clip-path="url(#clipPath2)" stroke="none"/>
      <path fill="none" d="M387.1417 -416.4088 L381.1417 -400.4088 L393.1417 -400.4088 Z" clip-path="url(#clipPath2)"/>
      <path fill="none" d="M736.4833 -116.1976 L736.4833 -131.6674 L460.1417 -131.6674 L460.1417 -401.4107" clip-path="url(#clipPath2)"/>
      <path fill="white" d="M460.1417 -416.4107 L454.1417 -400.4107 L466.1417 -400.4107 Z" clip-path="url(#clipPath2)" stroke="none"/>
      <path fill="none" d="M460.1417 -416.4107 L454.1417 -400.4107 L466.1417 -400.4107 Z" clip-path="url(#clipPath2)"/>
    </g>
    <g fill="rgb(245,245,245)" text-rendering="geometricPrecision" shape-rendering="geometricPrecision" transform="matrix(1,0,0,1,15,1297)" stroke="rgb(245,245,245)">
      <rect x="2329.9004" y="-551.9782" clip-path="url(#clipPath2)" width="1140.6373" rx="4" ry="4" height="181.5794" stroke="none"/>
      <rect x="2329.9004" y="-551.9782" clip-path="url(#clipPath2)" fill="rgb(235,235,235)" width="1140.6373" height="22.3765" stroke="none"/>
    </g>
    <g font-size="15px" stroke-linecap="butt" transform="matrix(1,0,0,1,15,1297)" text-rendering="geometricPrecision" font-family="sans-serif" shape-rendering="geometricPrecision" stroke-miterlimit="1.45">
      <text x="3196.7578" xml:space="preserve" y="-534.8976" clip-path="url(#clipPath2)" stroke="none">com.gbjl.strips.examples.thecoffeeserver</text>
      <rect x="2329.9004" y="-551.9782" clip-path="url(#clipPath2)" fill="none" width="1140.6373" stroke-dasharray="6,2" rx="4" ry="4" height="181.5794"/>
    </g>
    <g fill="rgb(255,255,153)" text-rendering="geometricPrecision" shape-rendering="geometricPrecision" transform="matrix(1,0,0,1,15,1297)" stroke="rgb(255,255,153)">
      <rect x="2345.9005" width="308.8831" height="109.2849" y="-504.6428" clip-path="url(#clipPath2)" stroke="none"/>
    </g>
    <g text-rendering="geometricPrecision" stroke-miterlimit="1.45" shape-rendering="geometricPrecision" transform="matrix(1,0,0,1,15,1297)" stroke-linecap="butt">
      <rect fill="none" x="2345.9005" width="308.8831" height="109.2849" y="-504.6428" clip-path="url(#clipPath2)"/>
      <text x="2456.2766" font-size="13px" y="-486.5729" clip-path="url(#clipPath16)" font-family="sans-serif" stroke="none" font-weight="bold" xml:space="preserve">MoveOperator</text>
      <line stroke-linecap="square" clip-path="url(#clipPath16)" fill="none" x1="2346" x2="2653" y1="-478" y2="-478" stroke-miterlimit="10"/>
      <line stroke-linecap="square" clip-path="url(#clipPath16)" fill="none" x1="2346" x2="2653" y1="-468" y2="-468" stroke-miterlimit="10"/>
    </g>
    <g text-rendering="geometricPrecision" stroke-miterlimit="1.45" shape-rendering="geometricPrecision" font-family="sans-serif" transform="matrix(1,0,0,1,15,1297) translate(2350,-463)" stroke-linecap="butt">
      <text x="0" xml:space="preserve" y="13" clip-path="url(#clipPath17)" stroke="none">MoveOperator()</text>
      <text x="84" xml:space="preserve" y="13" clip-path="url(#clipPath17)" stroke="none"> </text>
      <text x="0" xml:space="preserve" y="29" clip-path="url(#clipPath17)" stroke="none">getPostconditions(state : PredicateSet) : PredicateSet</text>
      <text x="292" xml:space="preserve" y="29" clip-path="url(#clipPath17)" stroke="none"> </text>
      <text x="0" xml:space="preserve" y="45" clip-path="url(#clipPath17)" stroke="none">copy() : Operator</text>
      <text x="90" xml:space="preserve" y="45" clip-path="url(#clipPath17)" stroke="none"> </text>
      <text x="0" xml:space="preserve" y="61" clip-path="url(#clipPath17)" stroke="none">getManhattanDistance(o1 : Param, o2 : Param) : Int</text>
      <line y2="62" fill="none" x1="0" clip-path="url(#clipPath17)" x2="279" y1="62"/>
      <text x="279" xml:space="preserve" y="61" clip-path="url(#clipPath17)" stroke="none"> </text>
    </g>
    <g fill="rgb(255,255,153)" text-rendering="geometricPrecision" shape-rendering="geometricPrecision" transform="matrix(1,0,0,1,15,1297)" stroke="rgb(255,255,153)">
      <rect x="2684.7839" width="769.7537" height="129.2029" y="-514.6018" clip-path="url(#clipPath2)" stroke="none"/>
    </g>
    <g text-rendering="geometricPrecision" stroke-miterlimit="1.45" shape-rendering="geometricPrecision" transform="matrix(1,0,0,1,15,1297)" stroke-linecap="butt">
      <rect fill="none" x="2684.7839" width="769.7537" height="129.2029" y="-514.6018" clip-path="url(#clipPath2)"/>
      <text x="3054.8547" font-size="13px" y="-496.532" clip-path="url(#clipPath18)" font-family="sans-serif" stroke="none" font-weight="bold" xml:space="preserve">Main</text>
      <line stroke-linecap="square" clip-path="url(#clipPath18)" fill="none" x1="2685" x2="3453" y1="-488" y2="-488" stroke-miterlimit="10"/>
      <line stroke-linecap="square" clip-path="url(#clipPath18)" fill="none" x1="2685" x2="3453" y1="-478" y2="-478" stroke-miterlimit="10"/>
    </g>
    <g text-rendering="geometricPrecision" stroke-miterlimit="1.45" shape-rendering="geometricPrecision" font-family="sans-serif" transform="matrix(1,0,0,1,15,1297) translate(2689,-473)" stroke-linecap="butt">
      <text x="0" xml:space="preserve" y="13" clip-path="url(#clipPath19)" stroke="none">main(args : String[])</text>
      <line y2="14" fill="none" x1="0" clip-path="url(#clipPath19)" x2="108" y1="14"/>
      <text x="108" xml:space="preserve" y="13" clip-path="url(#clipPath19)" stroke="none"> </text>
      <text x="0" xml:space="preserve" y="29" clip-path="url(#clipPath19)" stroke="none">heuristicSortPredicateSet(state : PredicateSet, stack : ArrayList&lt;Element&gt;, p : PredicateSet) : ArrayList&lt;Predicate&gt;</text>
      <text x="618" xml:space="preserve" y="29" clip-path="url(#clipPath19)" stroke="none"> </text>
      <text x="0" xml:space="preserve" y="45" clip-path="url(#clipPath19)" stroke="none">heuristicBestOperator(state : PredicateSet, stack : ArrayList&lt;Element&gt;, ops : Set&lt;Operator&gt;) : Operator</text>
      <text x="558" xml:space="preserve" y="45" clip-path="url(#clipPath19)" stroke="none"> </text>
      <text x="0" xml:space="preserve" y="61" clip-path="url(#clipPath19)" stroke="none">heuristicBestInstantiation(state : PredicateSet, stack : ArrayList&lt;Element&gt;, p : Predicate, i : Set&lt;Map&lt;String, Param&gt;&gt;) : Map&lt;String, Param&gt;</text>
      <text x="761" xml:space="preserve" y="61" clip-path="url(#clipPath19)" stroke="none"> </text>
      <text x="0" xml:space="preserve" y="77" clip-path="url(#clipPath19)" stroke="none">logSTRIPS(message : String)</text>
    </g>
    <g text-rendering="geometricPrecision" stroke-miterlimit="1.45" shape-rendering="geometricPrecision" transform="matrix(1,0,0,1,15,1297)" stroke-linecap="butt">
      <path fill="none" d="M2500.342 -504.6783 L2500.342 -650.2756 L1231.7667 -650.2756 L1231.7667 -767.7433" clip-path="url(#clipPath2)"/>
      <path fill="white" d="M1231.7667 -782.7433 L1225.7667 -766.7433 L1237.7667 -766.7433 Z" clip-path="url(#clipPath2)" stroke="none"/>
      <path fill="none" d="M1231.7667 -782.7433 L1225.7667 -766.7433 L1237.7667 -766.7433 Z" clip-path="url(#clipPath2)"/>
      <path fill="none" stroke-dasharray="6,2" d="M2877.2222 -514.6388 L2877.2222 -666.2756 L1685.8969 -666.2756 L1685.8969 -834.6365" clip-path="url(#clipPath2)"/>
      <path fill="white" stroke-dasharray="6,2" d="M1685.8969 -849.6365 L1679.8969 -833.6365 L1691.8969 -833.6365 Z" clip-path="url(#clipPath2)" stroke="none"/>
      <path fill="none" d="M1685.8969 -849.6365 L1679.8969 -833.6365 L1691.8969 -833.6365 Z" clip-path="url(#clipPath2)"/>
      <path fill="none" stroke-dasharray="6,2" d="M3262.0991 -514.6427 L3262.0991 -682.2756 L2190.9614 -682.2756 L2190.9614 -849.0458" clip-path="url(#clipPath2)"/>
      <path fill="white" stroke-dasharray="6,2" d="M2190.9614 -864.0458 L2184.9614 -848.0458 L2196.9614 -848.0458 Z" clip-path="url(#clipPath2)" stroke="none"/>
      <path fill="none" d="M2190.9614 -864.0458 L2184.9614 -848.0458 L2196.9614 -848.0458 Z" clip-path="url(#clipPath2)"/>
    </g>
    <g fill="rgb(245,245,245)" text-rendering="geometricPrecision" shape-rendering="geometricPrecision" transform="matrix(1,0,0,1,15,1297)" stroke="rgb(245,245,245)">
      <rect x="53.0008" y="-961.1333" clip-path="url(#clipPath2)" width="132" rx="4" ry="4" height="80.3765" stroke="none"/>
      <rect x="53.0008" y="-961.1333" clip-path="url(#clipPath2)" fill="rgb(235,235,235)" width="132" height="22.3765" stroke="none"/>
    </g>
    <g font-size="15px" stroke-linecap="butt" transform="matrix(1,0,0,1,15,1297)" text-rendering="geometricPrecision" font-family="sans-serif" shape-rendering="geometricPrecision" stroke-miterlimit="1.45">
      <text x="122.9568" xml:space="preserve" y="-944.0527" clip-path="url(#clipPath2)" stroke="none">java.lang</text>
      <rect x="53.0008" y="-961.1333" clip-path="url(#clipPath2)" fill="none" width="132" stroke-dasharray="6,2" rx="4" ry="4" height="80.3765"/>
    </g>
    <g fill="rgb(255,204,153)" text-rendering="geometricPrecision" shape-rendering="geometricPrecision" transform="matrix(1,0,0,1,15,1297)" stroke="rgb(255,204,153)">
      <rect x="69.0008" width="100" height="28" y="-923.7568" clip-path="url(#clipPath2)" stroke="none"/>
    </g>
    <g text-rendering="geometricPrecision" stroke-miterlimit="1.45" shape-rendering="geometricPrecision" transform="matrix(1,0,0,1,15,1297)" stroke-linecap="butt">
      <rect fill="none" x="69.0008" width="100" height="28" y="-923.7568" clip-path="url(#clipPath2)"/>
      <text x="87.9385" font-size="13px" y="-905.687" clip-path="url(#clipPath20)" font-family="sans-serif" stroke="none" font-weight="bold" xml:space="preserve">Exception</text>
      <path fill="none" d="M423.6417 -483.5919 L423.6417 -634.2756 L119.0008 -634.2756 L119.0008 -880.7249" clip-path="url(#clipPath2)"/>
      <path fill="white" d="M119.0008 -895.7249 L113.0008 -879.7249 L125.0008 -879.7249 Z" clip-path="url(#clipPath2)" stroke="none"/>
      <path fill="none" d="M119.0008 -895.7249 L113.0008 -879.7249 L125.0008 -879.7249 Z" clip-path="url(#clipPath2)"/>
    </g>
    <g fill="rgb(245,245,245)" text-rendering="geometricPrecision" shape-rendering="geometricPrecision" transform="matrix(1,0,0,1,15,1297)" stroke="rgb(245,245,245)">
      <rect x="0" y="-1249.7812" clip-path="url(#clipPath2)" width="185.0008" rx="4" ry="4" height="80.3765" stroke="none"/>
      <rect x="0" y="-1249.7812" clip-path="url(#clipPath2)" fill="rgb(235,235,235)" width="185.0008" height="22.3765" stroke="none"/>
    </g>
    <g font-size="15px" stroke-linecap="butt" transform="matrix(1,0,0,1,15,1297)" text-rendering="geometricPrecision" font-family="sans-serif" shape-rendering="geometricPrecision" stroke-miterlimit="1.45">
      <text x="132.1414" xml:space="preserve" y="-1232.7006" clip-path="url(#clipPath2)" stroke="none">java.util</text>
      <rect x="0" y="-1249.7812" clip-path="url(#clipPath2)" fill="none" width="185.0008" stroke-dasharray="6,2" rx="4" ry="4" height="80.3765"/>
    </g>
    <g fill="rgb(255,204,153)" text-rendering="geometricPrecision" shape-rendering="geometricPrecision" transform="matrix(1,0,0,1,15,1297)" stroke="rgb(255,204,153)">
      <rect x="16.0004" width="153" height="28" y="-1212.4047" clip-path="url(#clipPath2)" stroke="none"/>
    </g>
    <g text-rendering="geometricPrecision" stroke-miterlimit="1.45" shape-rendering="geometricPrecision" transform="matrix(1,0,0,1,15,1297)" stroke-linecap="butt">
      <rect fill="none" x="16.0004" width="153" height="28" y="-1212.4047" clip-path="url(#clipPath2)"/>
      <text x="29.6332" font-size="13px" y="-1194.3348" clip-path="url(#clipPath21)" font-family="sans-serif" stroke="none" font-weight="bold" xml:space="preserve">HashSet&lt;Predicate&gt;</text>
      <path fill="none" d="M454.5561 -998.195 L454.5561 -1052.238 L92.5004 -1052.238 L92.5004 -1169.3724" clip-path="url(#clipPath2)"/>
      <path fill="white" d="M92.5004 -1184.3724 L86.5004 -1168.3724 L98.5004 -1168.3724 Z" clip-path="url(#clipPath2)" stroke="none"/>
      <path fill="none" d="M92.5004 -1184.3724 L86.5004 -1168.3724 L98.5004 -1168.3724 Z" clip-path="url(#clipPath2)"/>
    </g>
  </g>
</svg>
