<?xml version="1.0" encoding="UTF-8"?><svg xmlns="http://www.w3.org/2000/svg" xmlns:xlink="http://www.w3.org/1999/xlink" fill-opacity="1" color-rendering="auto" color-interpolation="auto" text-rendering="auto" stroke="black" stroke-linecap="square" width="2361" stroke-miterlimit="10" shape-rendering="auto" stroke-opacity="1" fill="black" stroke-dasharray="none" font-weight="normal" stroke-width="1" height="912" font-family="'Dialog'" font-style="normal" stroke-linejoin="miter" font-size="12px" stroke-dashoffset="0" image-rendering="auto">
  <!--Generated by ySVG 2.5-->
  <defs id="genericDefs"/>
  <g>
    <defs id="defs1">
      <clipPath clipPathUnits="userSpaceOnUse" id="clipPath1">
        <path d="M0 0 L2361 0 L2361 912 L0 912 L0 0 Z"/>
      </clipPath>
      <clipPath clipPathUnits="userSpaceOnUse" id="clipPath2">
        <path d="M-15 -882 L2346 -882 L2346 30 L-15 30 L-15 -882 Z"/>
      </clipPath>
      <clipPath clipPathUnits="userSpaceOnUse" id="clipPath3">
        <path d="M79 -828 L79 -771 L370 -771 L370 -828 Z"/>
      </clipPath>
      <clipPath clipPathUnits="userSpaceOnUse" id="clipPath4">
        <path d="M238 -301 L238 -209 L412 -209 L412 -301 Z"/>
      </clipPath>
      <clipPath clipPathUnits="userSpaceOnUse" id="clipPath5">
        <path d="M0 0 L0 16 L119 16 L119 0 Z"/>
      </clipPath>
      <clipPath clipPathUnits="userSpaceOnUse" id="clipPath6">
        <path d="M16 -602 L16 -573 L124 -573 L124 -602 Z"/>
      </clipPath>
      <clipPath clipPathUnits="userSpaceOnUse" id="clipPath7">
        <path d="M325 -655 L325 -520 L625 -520 L625 -655 Z"/>
      </clipPath>
      <clipPath clipPathUnits="userSpaceOnUse" id="clipPath8">
        <path d="M355 -75 L355 0 L484 0 L484 -75 Z"/>
      </clipPath>
      <clipPath clipPathUnits="userSpaceOnUse" id="clipPath9">
        <path d="M514 -70 L514 -5 L1255 -5 L1255 -70 Z"/>
      </clipPath>
      <clipPath clipPathUnits="userSpaceOnUse" id="clipPath10">
        <path d="M656 -648 L656 -528 L1420 -528 L1420 -648 Z"/>
      </clipPath>
      <clipPath clipPathUnits="userSpaceOnUse" id="clipPath11">
        <path d="M1450 -633 L1450 -542 L1617 -542 L1617 -633 Z"/>
      </clipPath>
      <clipPath clipPathUnits="userSpaceOnUse" id="clipPath12">
        <path d="M1680 -294 L1680 -216 L1988 -216 L1988 -294 Z"/>
      </clipPath>
      <clipPath clipPathUnits="userSpaceOnUse" id="clipPath13">
        <path d="M0 0 L0 32 L292 32 L292 0 Z"/>
      </clipPath>
      <clipPath clipPathUnits="userSpaceOnUse" id="clipPath14">
        <path d="M2019 -319 L2019 -190 L2313 -190 L2313 -319 Z"/>
      </clipPath>
      <clipPath clipPathUnits="userSpaceOnUse" id="clipPath15">
        <path d="M0 0 L0 80 L278 80 L278 0 Z"/>
      </clipPath>
    </defs>
    <g fill="rgb(245,245,245)" text-rendering="geometricPrecision" shape-rendering="geometricPrecision" transform="matrix(1,0,0,1,15,882)" stroke="rgb(245,245,245)">
      <rect x="0" y="-866.22" clip-path="url(#clipPath2)" width="1634.7556" rx="4" ry="4" height="881.22" stroke="none"/>
    </g>
    <g fill="rgb(235,235,235)" text-rendering="geometricPrecision" shape-rendering="geometricPrecision" transform="matrix(1,0,0,1,15,882)" stroke="rgb(235,235,235)">
      <rect x="0" width="1634.7556" height="22.3765" y="-866.22" clip-path="url(#clipPath2)" stroke="none"/>
    </g>
    <g font-size="15px" stroke-linecap="butt" transform="matrix(1,0,0,1,15,882)" text-rendering="geometricPrecision" font-family="sans-serif" shape-rendering="geometricPrecision" stroke-miterlimit="1.45">
      <text x="1536.8962" xml:space="preserve" y="-849.1395" clip-path="url(#clipPath2)" stroke="none">com.gbjl.strips</text>
      <rect x="0" y="-866.22" clip-path="url(#clipPath2)" fill="none" width="1634.7556" stroke-dasharray="6,2" rx="4" ry="4" height="881.22"/>
    </g>
    <g fill="white" text-rendering="geometricPrecision" shape-rendering="geometricPrecision" transform="matrix(1,0,0,1,15,882)" stroke="white">
      <rect x="79.5893" width="291.234" height="57.0836" y="-828.8436" clip-path="url(#clipPath2)" stroke="none"/>
    </g>
    <g text-rendering="geometricPrecision" stroke-miterlimit="1.45" shape-rendering="geometricPrecision" transform="matrix(1,0,0,1,15,882)" stroke-linecap="butt">
      <rect fill="none" x="79.5893" width="291.234" height="57.0836" y="-828.8436" clip-path="url(#clipPath2)"/>
      <text x="188.178" xml:space="preserve" y="-811.7791" clip-path="url(#clipPath3)" font-family="sans-serif" stroke="none">&lt;&lt;interface&gt;&gt;</text>
      <text x="199.9205" font-size="13px" y="-787.0726" clip-path="url(#clipPath3)" font-family="sans-serif" stroke="none" font-weight="bold" xml:space="preserve">Element</text>
    </g>
    <g fill="white" text-rendering="geometricPrecision" shape-rendering="geometricPrecision" transform="matrix(1,0,0,1,15,882)" stroke="white">
      <rect x="238.7819" width="174.5156" height="92.6406" y="-301.5587" clip-path="url(#clipPath2)" stroke="none"/>
    </g>
    <g text-rendering="geometricPrecision" stroke-miterlimit="1.45" shape-rendering="geometricPrecision" transform="matrix(1,0,0,1,15,882)" stroke-linecap="butt">
      <rect fill="none" x="238.7819" width="174.5156" height="92.6406" y="-301.5587" clip-path="url(#clipPath2)"/>
      <text x="296.7738" font-size="13px" y="-283.4889" clip-path="url(#clipPath4)" font-family="sans-serif" stroke="none" font-weight="bold" xml:space="preserve">Predicate</text>
      <line stroke-linecap="square" clip-path="url(#clipPath4)" fill="none" x1="239" x2="412" y1="-275" y2="-275" stroke-miterlimit="10"/>
      <text x="243.7819" xml:space="preserve" y="-258.568" clip-path="url(#clipPath4)" font-family="sans-serif" stroke="none">name : String</text>
      <text x="243.7819" xml:space="preserve" y="-243.8668" clip-path="url(#clipPath4)" font-family="sans-serif" stroke="none">negated : Boolean</text>
      <line stroke-linecap="square" clip-path="url(#clipPath4)" fill="none" x1="239" x2="412" y1="-236" y2="-236" stroke-miterlimit="10"/>
    </g>
    <g text-rendering="geometricPrecision" stroke-miterlimit="1.45" shape-rendering="geometricPrecision" font-family="sans-serif" transform="matrix(1,0,0,1,15,882) translate(243,-231)" stroke-linecap="butt">
      <text x="0" xml:space="preserve" y="13" clip-path="url(#clipPath5)" stroke="none">addParam(p : Param)</text>
      <text x="119" xml:space="preserve" y="13" clip-path="url(#clipPath5)" stroke="none"> </text>
    </g>
    <g fill="white" text-rendering="geometricPrecision" shape-rendering="geometricPrecision" transform="matrix(1,0,0,1,15,882)" stroke="white">
      <rect x="16.0001" width="108.7061" height="29.9358" y="-602.9561" clip-path="url(#clipPath2)" stroke="none"/>
    </g>
    <g text-rendering="geometricPrecision" stroke-miterlimit="1.45" shape-rendering="geometricPrecision" transform="matrix(1,0,0,1,15,882)" stroke-linecap="butt">
      <rect fill="none" x="16.0001" width="108.7061" height="29.9358" y="-602.9561" clip-path="url(#clipPath2)"/>
      <text x="30.9723" font-size="13px" y="-584.8862" clip-path="url(#clipPath6)" font-family="sans-serif" stroke="none" font-weight="bold" xml:space="preserve">PredicateSet</text>
    </g>
    <g fill="white" text-rendering="geometricPrecision" shape-rendering="geometricPrecision" transform="matrix(1,0,0,1,15,882)" stroke="white">
      <rect x="325.7067" width="300.9454" height="135.5436" y="-655.76" clip-path="url(#clipPath2)" stroke="none"/>
    </g>
    <g text-rendering="geometricPrecision" stroke-miterlimit="1.45" shape-rendering="geometricPrecision" transform="matrix(1,0,0,1,15,882)" stroke-linecap="butt">
      <rect fill="none" x="325.7067" width="300.9454" height="135.5436" y="-655.76" clip-path="url(#clipPath2)"/>
      <text x="448.7289" font-size="13px" y="-637.6901" clip-path="url(#clipPath7)" font-family="sans-serif" stroke="none" font-weight="bold" xml:space="preserve">Operator</text>
      <line stroke-linecap="square" clip-path="url(#clipPath7)" fill="none" x1="326" x2="625" y1="-629" y2="-629" stroke-miterlimit="10"/>
      <text x="330.7067" xml:space="preserve" y="-612.7692" clip-path="url(#clipPath7)" font-family="sans-serif" stroke="none">name : String</text>
      <line stroke-linecap="square" clip-path="url(#clipPath7)" fill="none" x1="326" x2="625" y1="-605" y2="-605" stroke-miterlimit="10"/>
      <text x="330.7067" xml:space="preserve" y="-588.0681" clip-path="url(#clipPath7)" font-family="sans-serif" stroke="none">addParam(p : Param)</text>
      <text x="330.7067" xml:space="preserve" y="-573.3669" clip-path="url(#clipPath7)" font-family="sans-serif" stroke="none">addPrecondition(p : Predicate)</text>
      <text x="330.7067" xml:space="preserve" y="-558.6657" clip-path="url(#clipPath7)" font-family="sans-serif" stroke="none">addPostcondition(p : Predicate)</text>
      <text x="330.7067" xml:space="preserve" y="-543.9645" clip-path="url(#clipPath7)" font-family="sans-serif" stroke="none">getPreconditions(state : PredicateSet) : PredicateSet</text>
      <text x="330.7067" xml:space="preserve" y="-529.2634" clip-path="url(#clipPath7)" font-family="sans-serif" stroke="none">getPostconditions(state : PredicateSet) : PredicateSet</text>
    </g>
    <g fill="white" text-rendering="geometricPrecision" shape-rendering="geometricPrecision" transform="matrix(1,0,0,1,15,882)" stroke="white">
      <rect x="355.0104" width="129.8165" height="75.637" y="-75.637" clip-path="url(#clipPath2)" stroke="none"/>
    </g>
    <g text-rendering="geometricPrecision" stroke-miterlimit="1.45" shape-rendering="geometricPrecision" transform="matrix(1,0,0,1,15,882)" stroke-linecap="butt">
      <rect fill="none" x="355.0104" width="129.8165" height="75.637" y="-75.637" clip-path="url(#clipPath2)"/>
      <text x="400.0441" font-size="13px" y="-57.5672" clip-path="url(#clipPath8)" font-family="sans-serif" stroke="none" font-weight="bold" xml:space="preserve">Param</text>
      <line stroke-linecap="square" clip-path="url(#clipPath8)" fill="none" x1="356" x2="483" y1="-49" y2="-49" stroke-miterlimit="10"/>
      <text x="360.0104" xml:space="preserve" y="-32.6463" clip-path="url(#clipPath8)" font-family="sans-serif" stroke="none">name : String</text>
      <text x="360.0104" xml:space="preserve" y="-17.9451" clip-path="url(#clipPath8)" font-family="sans-serif" stroke="none">instantiated : Boolean</text>
      <line stroke-linecap="square" clip-path="url(#clipPath8)" fill="none" x1="356" x2="483" y1="-10" y2="-10" stroke-miterlimit="10"/>
    </g>
    <g fill="white" text-rendering="geometricPrecision" shape-rendering="geometricPrecision" transform="matrix(1,0,0,1,15,882)" stroke="white">
      <rect x="514.8271" width="741.1561" height="65.0868" y="-70.3619" clip-path="url(#clipPath2)" stroke="none"/>
    </g>
    <g text-rendering="geometricPrecision" stroke-miterlimit="1.45" shape-rendering="geometricPrecision" transform="matrix(1,0,0,1,15,882)" stroke-linecap="butt">
      <rect fill="none" x="514.8271" width="741.1561" height="65.0868" y="-70.3619" clip-path="url(#clipPath2)"/>
      <text x="865.5338" font-size="13px" y="-52.2921" clip-path="url(#clipPath9)" font-family="sans-serif" stroke="none" font-weight="bold" xml:space="preserve">Solver</text>
      <line stroke-linecap="square" clip-path="url(#clipPath9)" fill="none" x1="515" x2="1254" y1="-44" y2="-44" stroke-miterlimit="10"/>
      <line stroke-linecap="square" clip-path="url(#clipPath9)" fill="none" x1="515" x2="1254" y1="-34" y2="-34" stroke-miterlimit="10"/>
      <text x="519.8271" xml:space="preserve" y="-17.3712" clip-path="url(#clipPath9)" font-family="sans-serif" stroke="none">solve(ops : Set&lt;Operator&gt;, start : Set&lt;Predicate&gt;, goal : Set&lt;Predicate&gt;, h : HeuristicProvider, l : STRIPSLogger) : ArrayList&lt;Operator&gt;</text>
    </g>
    <g fill="white" text-rendering="geometricPrecision" shape-rendering="geometricPrecision" transform="matrix(1,0,0,1,15,882)" stroke="white">
      <rect x="656.6524" width="764.2515" height="120.151" y="-648.0637" clip-path="url(#clipPath2)" stroke="none"/>
    </g>
    <g text-rendering="geometricPrecision" stroke-miterlimit="1.45" shape-rendering="geometricPrecision" transform="matrix(1,0,0,1,15,882)" stroke-linecap="butt">
      <rect fill="none" x="656.6524" width="764.2515" height="120.151" y="-648.0637" clip-path="url(#clipPath2)"/>
      <text x="1001.7499" xml:space="preserve" y="-630.9992" clip-path="url(#clipPath10)" font-family="sans-serif" stroke="none">&lt;&lt;interface&gt;&gt;</text>
      <text x="984.5914" font-size="13px" y="-606.2927" clip-path="url(#clipPath10)" font-family="sans-serif" stroke="none" font-weight="bold" xml:space="preserve">HeuristicProvider</text>
      <line stroke-linecap="square" clip-path="url(#clipPath10)" fill="none" x1="657" x2="1419" y1="-598" y2="-598" stroke-miterlimit="10"/>
      <line stroke-linecap="square" clip-path="url(#clipPath10)" fill="none" x1="657" x2="1419" y1="-588" y2="-588" stroke-miterlimit="10"/>
      <text x="661.6524" xml:space="preserve" y="-571.3718" clip-path="url(#clipPath10)" font-family="sans-serif" stroke="none">heuristicSortPredicateSet(state : PredicateSet, stack : ArrayList&lt;Element&gt;,  p : PredicateSet) : ArrayList&lt;Predicate&gt;</text>
      <text x="661.6524" xml:space="preserve" y="-556.6706" clip-path="url(#clipPath10)" font-family="sans-serif" stroke="none">heuristicBestOperator(state : PredicateSet, stack : ArrayList&lt;Element&gt;, ops : Set&lt;Operator&gt;) : Operator</text>
      <text x="661.6524" xml:space="preserve" y="-541.9694" clip-path="url(#clipPath10)" font-family="sans-serif" stroke="none">heuristicBestInstantiation(state : PredicateSet, stack : ArrayList&lt;Element&gt;, p : Predicate, i : Set&lt;Map&lt;String, Param&gt;&gt;) : Map&lt;String, Param&gt;</text>
    </g>
    <g fill="white" text-rendering="geometricPrecision" shape-rendering="geometricPrecision" transform="matrix(1,0,0,1,15,882)" stroke="white">
      <rect x="1450.904" width="167.8515" height="91.3333" y="-633.6548" clip-path="url(#clipPath2)" stroke="none"/>
    </g>
    <g text-rendering="geometricPrecision" stroke-miterlimit="1.45" shape-rendering="geometricPrecision" transform="matrix(1,0,0,1,15,882)" stroke-linecap="butt">
      <rect fill="none" x="1450.904" width="167.8515" height="91.3333" y="-633.6548" clip-path="url(#clipPath2)"/>
      <text x="1497.8014" xml:space="preserve" y="-616.5904" clip-path="url(#clipPath11)" font-family="sans-serif" stroke="none">&lt;&lt;interface&gt;&gt;</text>
      <text x="1489.3265" font-size="13px" y="-591.8839" clip-path="url(#clipPath11)" font-family="sans-serif" stroke="none" font-weight="bold" xml:space="preserve">STRIPSLogger</text>
      <line stroke-linecap="square" clip-path="url(#clipPath11)" fill="none" x1="1451" x2="1617" y1="-584" y2="-584" stroke-miterlimit="10"/>
      <line stroke-linecap="square" clip-path="url(#clipPath11)" fill="none" x1="1451" x2="1617" y1="-574" y2="-574" stroke-miterlimit="10"/>
      <text x="1455.9041" xml:space="preserve" y="-556.963" clip-path="url(#clipPath11)" font-family="sans-serif" stroke="none">logSTRIPS(message : String)</text>
      <path fill="none" stroke-dasharray="6,2" d="M304.2252 -301.5895 L304.2252 -333.0587 L225.2063 -333.0587 L225.2063 -756.7332" clip-path="url(#clipPath2)"/>
      <path fill="white" stroke-dasharray="6,2" d="M225.2063 -771.7332 L219.2063 -755.7332 L231.2063 -755.7332 Z" clip-path="url(#clipPath2)" stroke="none"/>
      <path fill="none" d="M225.2063 -771.7332 L219.2063 -755.7332 L231.2063 -755.7332 Z" clip-path="url(#clipPath2)"/>
      <path fill="none" d="M70.3532 -565.989 L70.3532 -317.0587 L260.5963 -317.0587 L260.5963 -301.589" clip-path="url(#clipPath2)"/>
      <path fill="white" d="M70.3532 -572.989 L75.3532 -565.989 L70.3532 -558.989 L65.3532 -565.989 Z" clip-path="url(#clipPath2)" stroke="none"/>
      <path fill="none" d="M70.3532 -572.989 L75.3532 -565.989 L70.3532 -558.989 L65.3532 -565.989 Z" clip-path="url(#clipPath2)"/>
      <path fill="none" stroke-dasharray="6,2" d="M70.3532 -602.9863 L70.3532 -618.4561 L128.1283 -618.4561 L128.1283 -756.7225" clip-path="url(#clipPath2)"/>
      <path fill="white" stroke-dasharray="6,2" d="M128.1283 -771.7225 L122.1283 -755.7225 L134.1283 -755.7225 Z" clip-path="url(#clipPath2)" stroke="none"/>
      <path fill="none" d="M128.1283 -771.7225 L122.1283 -755.7225 L134.1283 -755.7225 Z" clip-path="url(#clipPath2)"/>
      <path fill="none" stroke-dasharray="6,2" d="M476.1794 -655.7902 L476.1794 -671.2599 L322.2844 -671.2599 L322.2844 -756.7109" clip-path="url(#clipPath2)"/>
      <path fill="white" stroke-dasharray="6,2" d="M322.2844 -771.7109 L316.2844 -755.7109 L328.2844 -755.7109 Z" clip-path="url(#clipPath2)" stroke="none"/>
      <path fill="none" d="M322.2844 -771.7109 L316.2844 -755.7109 L328.2844 -755.7109 Z" clip-path="url(#clipPath2)"/>
      <path fill="none" d="M363.3249 -513.1667 L363.3249 -317.0587 L347.8541 -317.0587 L347.8541 -301.589" clip-path="url(#clipPath2)"/>
      <path d="M363.3249 -520.1667 L368.3249 -513.1667 L363.3249 -506.1667 L358.3249 -513.1667 Z" clip-path="url(#clipPath2)" stroke="none"/>
      <text x="283.8324" xml:space="preserve" y="-309.9328" clip-path="url(#clipPath2)" font-family="sans-serif" stroke="none">preconditions</text>
      <path fill="none" d="M438.5612 -513.1667 L438.5612 -317.0587 L391.4831 -317.0587 L391.4831 -301.589" clip-path="url(#clipPath2)"/>
      <path d="M438.5612 -520.1667 L443.5612 -513.1667 L438.5612 -506.1667 L433.5612 -513.1667 Z" clip-path="url(#clipPath2)" stroke="none"/>
      <text x="370.2028" xml:space="preserve" y="-406.7484" clip-path="url(#clipPath2)" font-family="sans-serif" stroke="none">postconditions</text>
      <path fill="none" d="M513.7975 -513.1902 L513.7976 -91.137 L452.3728 -91.137 L452.3728 -75.6673" clip-path="url(#clipPath2)"/>
      <path d="M513.7975 -520.1902 L518.7975 -513.1902 L513.7975 -506.1902 L508.7975 -513.1902 Z" clip-path="url(#clipPath2)" stroke="none"/>
      <text x="463.7907" xml:space="preserve" y="-293.7875" clip-path="url(#clipPath2)" font-family="sans-serif" stroke="none">params</text>
      <path fill="none" d="M326.0397 -201.8894 L326.0397 -91.137 L387.4645 -91.137 L387.4645 -75.6673" clip-path="url(#clipPath2)"/>
      <path d="M326.0397 -208.8894 L331.0397 -201.8894 L326.0397 -194.8894 L321.0397 -201.8894 Z" clip-path="url(#clipPath2)" stroke="none"/>
      <text x="276.0328" xml:space="preserve" y="-138.1384" clip-path="url(#clipPath2)" font-family="sans-serif" stroke="none">params</text>
    </g>
    <g fill="rgb(245,245,245)" text-rendering="geometricPrecision" shape-rendering="geometricPrecision" transform="matrix(1,0,0,1,15,882)" stroke="rgb(245,245,245)">
      <rect x="1664.7556" y="-357.2164" clip-path="url(#clipPath2)" width="665.2841" rx="4" ry="4" height="181.5794" stroke="none"/>
      <rect x="1664.7556" y="-357.2164" clip-path="url(#clipPath2)" fill="rgb(235,235,235)" width="665.2841" height="22.3765" stroke="none"/>
    </g>
    <g font-size="15px" stroke-linecap="butt" transform="matrix(1,0,0,1,15,882)" text-rendering="geometricPrecision" font-family="sans-serif" shape-rendering="geometricPrecision" stroke-miterlimit="1.45">
      <text x="2056.26" xml:space="preserve" y="-340.1358" clip-path="url(#clipPath2)" stroke="none">com.gbjl.strips.examples.thecoffeeserver</text>
      <rect x="1664.7556" y="-357.2164" clip-path="url(#clipPath2)" fill="none" width="665.2841" stroke-dasharray="6,2" rx="4" ry="4" height="181.5794"/>
    </g>
    <g fill="rgb(255,255,153)" text-rendering="geometricPrecision" shape-rendering="geometricPrecision" transform="matrix(1,0,0,1,15,882)" stroke="rgb(255,255,153)">
      <rect x="1680.7557" width="308.8831" height="78.6757" y="-294.5763" clip-path="url(#clipPath2)" stroke="none"/>
    </g>
    <g text-rendering="geometricPrecision" stroke-miterlimit="1.45" shape-rendering="geometricPrecision" transform="matrix(1,0,0,1,15,882)" stroke-linecap="butt">
      <rect fill="none" x="1680.7557" width="308.8831" height="78.6757" y="-294.5763" clip-path="url(#clipPath2)"/>
      <text x="1791.1318" font-size="13px" y="-276.5065" clip-path="url(#clipPath12)" font-family="sans-serif" stroke="none" font-weight="bold" xml:space="preserve">MoveOperator</text>
      <line stroke-linecap="square" clip-path="url(#clipPath12)" fill="none" x1="1681" x2="1988" y1="-268" y2="-268" stroke-miterlimit="10"/>
      <line stroke-linecap="square" clip-path="url(#clipPath12)" fill="none" x1="1681" x2="1988" y1="-258" y2="-258" stroke-miterlimit="10"/>
    </g>
    <g text-rendering="geometricPrecision" stroke-miterlimit="1.45" shape-rendering="geometricPrecision" font-family="sans-serif" transform="matrix(1,0,0,1,15,882) translate(1685,-253)" stroke-linecap="butt">
      <text x="0" xml:space="preserve" y="13" clip-path="url(#clipPath13)" stroke="none">getPostconditions(state : PredicateSet) : PredicateSet</text>
      <text x="292" xml:space="preserve" y="13" clip-path="url(#clipPath13)" stroke="none"> </text>
      <text x="0" xml:space="preserve" y="29" clip-path="url(#clipPath13)" stroke="none">getManhattanDistance(o1 : Param, o2 : Param) : Int</text>
      <line y2="30" fill="none" x1="0" clip-path="url(#clipPath13)" x2="279" y1="30"/>
      <text x="279" xml:space="preserve" y="29" clip-path="url(#clipPath13)" stroke="none"> </text>
    </g>
    <g fill="rgb(255,255,153)" text-rendering="geometricPrecision" shape-rendering="geometricPrecision" transform="matrix(1,0,0,1,15,882)" stroke="rgb(255,255,153)">
      <rect x="2019.639" width="294.4007" height="129.2029" y="-319.8399" clip-path="url(#clipPath2)" stroke="none"/>
    </g>
    <g text-rendering="geometricPrecision" stroke-miterlimit="1.45" shape-rendering="geometricPrecision" transform="matrix(1,0,0,1,15,882)" stroke-linecap="butt">
      <rect fill="none" x="2019.639" width="294.4007" height="129.2029" y="-319.8399" clip-path="url(#clipPath2)"/>
      <text x="2152.0334" font-size="13px" y="-301.7701" clip-path="url(#clipPath14)" font-family="sans-serif" stroke="none" font-weight="bold" xml:space="preserve">Main</text>
      <line stroke-linecap="square" clip-path="url(#clipPath14)" fill="none" x1="2020" x2="2313" y1="-293" y2="-293" stroke-miterlimit="10"/>
      <line stroke-linecap="square" clip-path="url(#clipPath14)" fill="none" x1="2020" x2="2313" y1="-283" y2="-283" stroke-miterlimit="10"/>
    </g>
    <g text-rendering="geometricPrecision" stroke-miterlimit="1.45" shape-rendering="geometricPrecision" font-family="sans-serif" transform="matrix(1,0,0,1,15,882) translate(2024,-278)" stroke-linecap="butt">
      <text x="0" xml:space="preserve" y="13" clip-path="url(#clipPath15)" stroke="none">main(args : String[])</text>
      <line y2="14" fill="none" x1="0" clip-path="url(#clipPath15)" x2="108" y1="14"/>
      <text x="108" xml:space="preserve" y="13" clip-path="url(#clipPath15)" stroke="none"> </text>
      <text x="0" xml:space="preserve" y="29" clip-path="url(#clipPath15)" stroke="none">heuristicSortPredicateSet(...) : ArrayList&lt;Predicate&gt;</text>
      <text x="278" xml:space="preserve" y="29" clip-path="url(#clipPath15)" stroke="none"> </text>
      <text x="0" xml:space="preserve" y="45" clip-path="url(#clipPath15)" stroke="none">heuristicBestOperator(...) : Operator</text>
      <text x="194" xml:space="preserve" y="45" clip-path="url(#clipPath15)" stroke="none"> </text>
      <text x="0" xml:space="preserve" y="61" clip-path="url(#clipPath15)" stroke="none">heuristicBestInstantiation(...) : Map&lt;String, Param&gt;</text>
      <text x="277" xml:space="preserve" y="61" clip-path="url(#clipPath15)" stroke="none"> </text>
      <text x="0" xml:space="preserve" y="77" clip-path="url(#clipPath15)" stroke="none">logSTRIPS(...)</text>
    </g>
    <g text-rendering="geometricPrecision" stroke-miterlimit="1.45" shape-rendering="geometricPrecision" transform="matrix(1,0,0,1,15,882)" stroke-linecap="butt">
      <path fill="none" d="M1835.1973 -294.6218 L1835.1973 -387.7164 L589.0339 -387.7164 L589.0339 -505.184" clip-path="url(#clipPath2)"/>
      <path fill="white" d="M589.0339 -520.184 L583.0339 -504.184 L595.0339 -504.184 Z" clip-path="url(#clipPath2)" stroke="none"/>
      <path fill="none" d="M589.0339 -520.184 L583.0339 -504.184 L595.0339 -504.184 Z" clip-path="url(#clipPath2)"/>
      <path fill="none" stroke-dasharray="6,2" d="M2093.239 -319.8809 L2093.239 -403.7164 L1038.7782 -403.7164 L1038.7782 -512.8823" clip-path="url(#clipPath2)"/>
      <path fill="white" stroke-dasharray="6,2" d="M1038.7782 -527.8823 L1032.7782 -511.8823 L1044.7782 -511.8823 Z" clip-path="url(#clipPath2)" stroke="none"/>
      <path fill="none" d="M1038.7782 -527.8823 L1032.7782 -511.8823 L1044.7782 -511.8823 Z" clip-path="url(#clipPath2)"/>
      <path fill="none" stroke-dasharray="6,2" d="M2240.4395 -319.8887 L2240.4395 -419.7164 L1534.8297 -419.7164 L1534.8297 -527.2916" clip-path="url(#clipPath2)"/>
      <path fill="white" stroke-dasharray="6,2" d="M1534.8297 -542.2916 L1528.8297 -526.2916 L1540.8297 -526.2916 Z" clip-path="url(#clipPath2)" stroke="none"/>
      <path fill="none" d="M1534.8297 -542.2916 L1528.8297 -526.2916 L1540.8297 -526.2916 Z" clip-path="url(#clipPath2)"/>
    </g>
  </g>
</svg>
